<mxfile host="app.diagrams.net" modified="2023-12-21T10:18:38.561Z" agent="Mozilla/5.0 (Windows NT 10.0; Win64; x64) AppleWebKit/537.36 (KHTML, like Gecko) Chrome/120.0.0.0 Safari/537.36" etag="eSPj2Qt9r80NPYtAxCxH" version="22.1.11" type="google">
  <diagram name="第 1 页" id="8pIXxAFTulOVl-PBs4mt">
    <mxGraphModel grid="0" page="1" gridSize="10" guides="1" tooltips="1" connect="1" arrows="1" fold="1" pageScale="1" pageWidth="4681" pageHeight="3300" math="0" shadow="0">
      <root>
        <mxCell id="0" />
        <mxCell id="1" parent="0" />
        <mxCell id="N51gQ7MtI0D1SiTp_SJz-7" value="" style="shape=table;startSize=0;container=1;collapsible=0;childLayout=tableLayout;align=left;" vertex="1" parent="1">
          <mxGeometry x="180" y="150" width="180" height="440" as="geometry" />
        </mxCell>
        <mxCell id="N51gQ7MtI0D1SiTp_SJz-8" value="" style="shape=tableRow;horizontal=0;startSize=0;swimlaneHead=0;swimlaneBody=0;strokeColor=inherit;top=0;left=0;bottom=0;right=0;collapsible=0;dropTarget=0;fillColor=none;points=[[0,0.5],[1,0.5]];portConstraint=eastwest;" vertex="1" parent="N51gQ7MtI0D1SiTp_SJz-7">
          <mxGeometry width="180" height="40" as="geometry" />
        </mxCell>
        <mxCell id="N51gQ7MtI0D1SiTp_SJz-9" value="管理員Admin" style="shape=partialRectangle;html=1;whiteSpace=wrap;connectable=0;strokeColor=inherit;overflow=hidden;fillColor=none;top=0;left=0;bottom=0;right=0;pointerEvents=1;" vertex="1" parent="N51gQ7MtI0D1SiTp_SJz-8">
          <mxGeometry width="180" height="40" as="geometry">
            <mxRectangle width="180" height="40" as="alternateBounds" />
          </mxGeometry>
        </mxCell>
        <mxCell id="N51gQ7MtI0D1SiTp_SJz-10" value="" style="shape=tableRow;horizontal=0;startSize=0;swimlaneHead=0;swimlaneBody=0;strokeColor=inherit;top=0;left=0;bottom=0;right=0;collapsible=0;dropTarget=0;fillColor=none;points=[[0,0.5],[1,0.5]];portConstraint=eastwest;" vertex="1" parent="N51gQ7MtI0D1SiTp_SJz-7">
          <mxGeometry y="40" width="180" height="400" as="geometry" />
        </mxCell>
        <mxCell id="N51gQ7MtI0D1SiTp_SJz-11" value="&lt;span style=&quot;font-family: &amp;quot;Segoe UI Historic&amp;quot;, &amp;quot;Segoe UI&amp;quot;, Helvetica, Arial, sans-serif; font-size: 15px; font-style: normal; font-variant-ligatures: normal; font-variant-caps: normal; font-weight: 400; letter-spacing: normal; orphans: 2; text-indent: 0px; text-transform: none; widows: 2; word-spacing: 0px; -webkit-text-stroke-width: 0px; text-decoration-thickness: initial; text-decoration-style: initial; text-decoration-color: initial; float: none; display: inline !important;&quot;&gt;-id:String&lt;br&gt;-password:String&lt;br&gt;-name:String&lt;br&gt;-phone:String&lt;br&gt;-address:String &lt;br&gt;+getphone ():String&lt;br&gt;+getid():String&lt;br&gt;+getaddress():String&lt;br&gt;+getname ():String&amp;nbsp; +getpassword():String&lt;br&gt;+setpassword():String&lt;br&gt;+setphone(String):String +setAddress(String):void&lt;br&gt;+ setid( String):void +setaddress(String): void +setpassword(String):void&lt;br&gt;+ setname(String):vold&lt;br&gt;+ Login_Admin()&lt;br&gt;+Modify_info()&lt;br&gt;+ Look-Info()&lt;/span&gt;" style="shape=partialRectangle;html=1;whiteSpace=wrap;connectable=0;strokeColor=inherit;overflow=hidden;fillColor=none;top=0;left=0;bottom=0;right=0;pointerEvents=1;align=left;labelBackgroundColor=none;fontColor=default;" vertex="1" parent="N51gQ7MtI0D1SiTp_SJz-10">
          <mxGeometry width="180" height="400" as="geometry">
            <mxRectangle width="180" height="400" as="alternateBounds" />
          </mxGeometry>
        </mxCell>
        <mxCell id="N51gQ7MtI0D1SiTp_SJz-14" value="" style="endArrow=none;dashed=1;html=1;strokeWidth=2;rounded=0;opacity=20;dashPattern=1 1;fontStyle=1" edge="1" parent="1">
          <mxGeometry width="50" height="50" relative="1" as="geometry">
            <mxPoint x="187" y="299" as="sourcePoint" />
            <mxPoint x="357" y="299" as="targetPoint" />
          </mxGeometry>
        </mxCell>
        <mxCell id="N51gQ7MtI0D1SiTp_SJz-16" value="" style="shape=table;startSize=0;container=1;collapsible=0;childLayout=tableLayout;" vertex="1" parent="1">
          <mxGeometry x="500" y="160" width="180" height="230" as="geometry" />
        </mxCell>
        <mxCell id="N51gQ7MtI0D1SiTp_SJz-17" value="" style="shape=tableRow;horizontal=0;startSize=0;swimlaneHead=0;swimlaneBody=0;strokeColor=inherit;top=0;left=0;bottom=0;right=0;collapsible=0;dropTarget=0;fillColor=none;points=[[0,0.5],[1,0.5]];portConstraint=eastwest;" vertex="1" parent="N51gQ7MtI0D1SiTp_SJz-16">
          <mxGeometry width="180" height="30" as="geometry" />
        </mxCell>
        <mxCell id="N51gQ7MtI0D1SiTp_SJz-18" value="&lt;div style=&quot;&quot;&gt;&lt;span style=&quot;background-color: initial;&quot;&gt;訂單管理Order_management&lt;/span&gt;&lt;/div&gt;" style="shape=partialRectangle;html=1;whiteSpace=wrap;connectable=0;strokeColor=inherit;overflow=hidden;fillColor=none;top=0;left=0;bottom=0;right=0;pointerEvents=1;align=left;" vertex="1" parent="N51gQ7MtI0D1SiTp_SJz-17">
          <mxGeometry width="180" height="30" as="geometry">
            <mxRectangle width="180" height="30" as="alternateBounds" />
          </mxGeometry>
        </mxCell>
        <mxCell id="N51gQ7MtI0D1SiTp_SJz-19" value="" style="shape=tableRow;horizontal=0;startSize=0;swimlaneHead=0;swimlaneBody=0;strokeColor=inherit;top=0;left=0;bottom=0;right=0;collapsible=0;dropTarget=0;fillColor=none;points=[[0,0.5],[1,0.5]];portConstraint=eastwest;" vertex="1" parent="N51gQ7MtI0D1SiTp_SJz-16">
          <mxGeometry y="30" width="180" height="200" as="geometry" />
        </mxCell>
        <mxCell id="N51gQ7MtI0D1SiTp_SJz-20" value="&amp;nbsp; -order_id:String&lt;br&gt;&amp;nbsp; -data:date&lt;br&gt;&amp;nbsp; -user_id:String&lt;br&gt;&amp;nbsp; -good_id:List&lt;br&gt;&amp;nbsp; -good_count:List&lt;br&gt;&amp;nbsp; -good_price list&lt;br&gt;&amp;nbsp; -total_price:double&lt;br&gt;&amp;nbsp;-send:String&lt;br&gt;&amp;nbsp;+show()&lt;br&gt;&amp;nbsp;+Modiy&lt;br&gt;&amp;nbsp;+search()&lt;br&gt;&amp;nbsp;+do_view()&lt;br&gt;&amp;nbsp;+Cancel()" style="shape=partialRectangle;html=1;whiteSpace=wrap;connectable=0;strokeColor=inherit;overflow=hidden;fillColor=none;top=0;left=0;bottom=0;right=0;pointerEvents=1;align=left;" vertex="1" parent="N51gQ7MtI0D1SiTp_SJz-19">
          <mxGeometry width="180" height="200" as="geometry">
            <mxRectangle width="180" height="200" as="alternateBounds" />
          </mxGeometry>
        </mxCell>
        <mxCell id="N51gQ7MtI0D1SiTp_SJz-23" value="" style="endArrow=classic;html=1;rounded=0;exitX=1.017;exitY=0.31;exitDx=0;exitDy=0;exitPerimeter=0;dashed=1;" edge="1" parent="1" source="N51gQ7MtI0D1SiTp_SJz-10">
          <mxGeometry width="50" height="50" relative="1" as="geometry">
            <mxPoint x="450" y="300" as="sourcePoint" />
            <mxPoint x="500" y="250" as="targetPoint" />
          </mxGeometry>
        </mxCell>
        <mxCell id="N51gQ7MtI0D1SiTp_SJz-24" value="1:m" style="edgeLabel;html=1;align=center;verticalAlign=middle;resizable=0;points=[];" connectable="0" vertex="1" parent="N51gQ7MtI0D1SiTp_SJz-23">
          <mxGeometry x="0.0416" y="-1" relative="1" as="geometry">
            <mxPoint y="1" as="offset" />
          </mxGeometry>
        </mxCell>
        <mxCell id="N51gQ7MtI0D1SiTp_SJz-25" value="" style="shape=table;startSize=0;container=1;collapsible=0;childLayout=tableLayout;" vertex="1" parent="1">
          <mxGeometry x="500" y="480" width="180" height="150" as="geometry" />
        </mxCell>
        <mxCell id="N51gQ7MtI0D1SiTp_SJz-26" value="" style="shape=tableRow;horizontal=0;startSize=0;swimlaneHead=0;swimlaneBody=0;strokeColor=inherit;top=0;left=0;bottom=0;right=0;collapsible=0;dropTarget=0;fillColor=none;points=[[0,0.5],[1,0.5]];portConstraint=eastwest;" vertex="1" parent="N51gQ7MtI0D1SiTp_SJz-25">
          <mxGeometry width="180" height="40" as="geometry" />
        </mxCell>
        <mxCell id="N51gQ7MtI0D1SiTp_SJz-27" value="商品管理Good_Management" style="shape=partialRectangle;html=1;whiteSpace=wrap;connectable=0;strokeColor=inherit;overflow=hidden;fillColor=none;top=0;left=0;bottom=0;right=0;pointerEvents=1;align=left;" vertex="1" parent="N51gQ7MtI0D1SiTp_SJz-26">
          <mxGeometry width="180" height="40" as="geometry">
            <mxRectangle width="180" height="40" as="alternateBounds" />
          </mxGeometry>
        </mxCell>
        <mxCell id="N51gQ7MtI0D1SiTp_SJz-28" value="" style="shape=tableRow;horizontal=0;startSize=0;swimlaneHead=0;swimlaneBody=0;strokeColor=inherit;top=0;left=0;bottom=0;right=0;collapsible=0;dropTarget=0;fillColor=none;points=[[0,0.5],[1,0.5]];portConstraint=eastwest;" vertex="1" parent="N51gQ7MtI0D1SiTp_SJz-25">
          <mxGeometry y="40" width="180" height="110" as="geometry" />
        </mxCell>
        <mxCell id="N51gQ7MtI0D1SiTp_SJz-29" value="&amp;nbsp; -good_id String&lt;br&gt;&lt;div style=&quot;&quot;&gt;&lt;span style=&quot;background-color: initial;&quot;&gt;&amp;nbsp; -good_ name:String&amp;nbsp;&lt;/span&gt;&lt;/div&gt;&lt;div style=&quot;&quot;&gt;&lt;span style=&quot;background-color: initial;&quot;&gt;&amp;nbsp; -good_price:double&amp;nbsp;&lt;/span&gt;&lt;/div&gt;&lt;div style=&quot;&quot;&gt;&lt;span style=&quot;background-color: initial;&quot;&gt;&amp;nbsp; -good_class:String&lt;/span&gt;&lt;/div&gt;&amp;nbsp; +add Good()&lt;br&gt;&amp;nbsp; +modify_Goodi)&lt;br&gt;&amp;nbsp; delete Good()" style="shape=partialRectangle;html=1;whiteSpace=wrap;connectable=0;strokeColor=inherit;overflow=hidden;fillColor=none;top=0;left=0;bottom=0;right=0;pointerEvents=1;align=left;" vertex="1" parent="N51gQ7MtI0D1SiTp_SJz-28">
          <mxGeometry width="180" height="110" as="geometry">
            <mxRectangle width="180" height="110" as="alternateBounds" />
          </mxGeometry>
        </mxCell>
        <mxCell id="N51gQ7MtI0D1SiTp_SJz-31" value="" style="endArrow=classic;html=1;rounded=0;dashed=1;entryX=0.417;entryY=0;entryDx=0;entryDy=0;entryPerimeter=0;exitX=1.017;exitY=0.328;exitDx=0;exitDy=0;exitPerimeter=0;" edge="1" parent="1" source="N51gQ7MtI0D1SiTp_SJz-10" target="N51gQ7MtI0D1SiTp_SJz-26">
          <mxGeometry width="50" height="50" relative="1" as="geometry">
            <mxPoint x="370" y="320" as="sourcePoint" />
            <mxPoint x="510" y="260" as="targetPoint" />
          </mxGeometry>
        </mxCell>
        <mxCell id="N51gQ7MtI0D1SiTp_SJz-32" value="1.m" style="edgeLabel;html=1;align=center;verticalAlign=middle;resizable=0;points=[];" connectable="0" vertex="1" parent="N51gQ7MtI0D1SiTp_SJz-31">
          <mxGeometry x="0.0416" y="-1" relative="1" as="geometry">
            <mxPoint y="1" as="offset" />
          </mxGeometry>
        </mxCell>
        <mxCell id="N51gQ7MtI0D1SiTp_SJz-42" value="1:m" style="edgeLabel;html=1;align=center;verticalAlign=middle;resizable=0;points=[];" connectable="0" vertex="1" parent="N51gQ7MtI0D1SiTp_SJz-31">
          <mxGeometry x="0.0513" y="-4" relative="1" as="geometry">
            <mxPoint as="offset" />
          </mxGeometry>
        </mxCell>
        <mxCell id="N51gQ7MtI0D1SiTp_SJz-33" value="" style="shape=table;startSize=0;container=1;collapsible=0;childLayout=tableLayout;" vertex="1" parent="1">
          <mxGeometry x="190" y="640" width="180" height="150" as="geometry" />
        </mxCell>
        <mxCell id="N51gQ7MtI0D1SiTp_SJz-34" value="" style="shape=tableRow;horizontal=0;startSize=0;swimlaneHead=0;swimlaneBody=0;strokeColor=inherit;top=0;left=0;bottom=0;right=0;collapsible=0;dropTarget=0;fillColor=none;points=[[0,0.5],[1,0.5]];portConstraint=eastwest;" vertex="1" parent="N51gQ7MtI0D1SiTp_SJz-33">
          <mxGeometry width="180" height="30" as="geometry" />
        </mxCell>
        <mxCell id="N51gQ7MtI0D1SiTp_SJz-35" value="顧客User" style="shape=partialRectangle;html=1;whiteSpace=wrap;connectable=0;strokeColor=inherit;overflow=hidden;fillColor=none;top=0;left=0;bottom=0;right=0;pointerEvents=1;align=left;" vertex="1" parent="N51gQ7MtI0D1SiTp_SJz-34">
          <mxGeometry width="180" height="30" as="geometry">
            <mxRectangle width="180" height="30" as="alternateBounds" />
          </mxGeometry>
        </mxCell>
        <mxCell id="N51gQ7MtI0D1SiTp_SJz-36" value="" style="shape=tableRow;horizontal=0;startSize=0;swimlaneHead=0;swimlaneBody=0;strokeColor=inherit;top=0;left=0;bottom=0;right=0;collapsible=0;dropTarget=0;fillColor=none;points=[[0,0.5],[1,0.5]];portConstraint=eastwest;" vertex="1" parent="N51gQ7MtI0D1SiTp_SJz-33">
          <mxGeometry y="30" width="180" height="120" as="geometry" />
        </mxCell>
        <mxCell id="N51gQ7MtI0D1SiTp_SJz-37" value="-Id:String&lt;br&gt;&amp;nbsp;-password:Sting&lt;br&gt;&amp;nbsp;-name:String&lt;br&gt;&amp;nbsp;-phone:String&lt;br&gt;&amp;nbsp;-address:String&lt;br&gt;&lt;div style=&quot;&quot;&gt;&lt;span style=&quot;background-color: initial;&quot;&gt;&amp;nbsp;+Modify_ info()&lt;/span&gt;&lt;/div&gt;+Look-Info()" style="shape=partialRectangle;html=1;whiteSpace=wrap;connectable=0;strokeColor=inherit;overflow=hidden;fillColor=none;top=0;left=0;bottom=0;right=0;pointerEvents=1;align=left;" vertex="1" parent="N51gQ7MtI0D1SiTp_SJz-36">
          <mxGeometry width="180" height="120" as="geometry">
            <mxRectangle width="180" height="120" as="alternateBounds" />
          </mxGeometry>
        </mxCell>
        <mxCell id="N51gQ7MtI0D1SiTp_SJz-40" value="" style="endArrow=none;html=1;rounded=0;exitX=0.522;exitY=0;exitDx=0;exitDy=0;exitPerimeter=0;" edge="1" parent="1" source="N51gQ7MtI0D1SiTp_SJz-34">
          <mxGeometry width="50" height="50" relative="1" as="geometry">
            <mxPoint x="230" y="640" as="sourcePoint" />
            <mxPoint x="280" y="590" as="targetPoint" />
          </mxGeometry>
        </mxCell>
        <mxCell id="N51gQ7MtI0D1SiTp_SJz-41" value="1:m" style="edgeLabel;html=1;align=center;verticalAlign=middle;resizable=0;points=[];" connectable="0" vertex="1" parent="N51gQ7MtI0D1SiTp_SJz-40">
          <mxGeometry x="-0.0701" y="3" relative="1" as="geometry">
            <mxPoint as="offset" />
          </mxGeometry>
        </mxCell>
        <mxCell id="N51gQ7MtI0D1SiTp_SJz-43" value="在线零食销告系统，主要有两大实体，顾客和管理员。管理员和顾客是一对多的联系，系统实例类及关系如图4-1所示：" style="rounded=0;whiteSpace=wrap;html=1;strokeColor=none;" vertex="1" parent="1">
          <mxGeometry x="160" y="120" width="660" height="20" as="geometry" />
        </mxCell>
        <mxCell id="N51gQ7MtI0D1SiTp_SJz-44" value="" style="endArrow=none;dashed=1;html=1;strokeWidth=2;rounded=0;opacity=20;dashPattern=1 1;" edge="1" parent="1">
          <mxGeometry width="50" height="50" relative="1" as="geometry">
            <mxPoint x="505" y="312" as="sourcePoint" />
            <mxPoint x="675" y="312" as="targetPoint" />
          </mxGeometry>
        </mxCell>
        <mxCell id="N51gQ7MtI0D1SiTp_SJz-45" value="" style="endArrow=none;dashed=1;html=1;strokeWidth=2;rounded=0;opacity=20;dashPattern=1 1;" edge="1" parent="1">
          <mxGeometry width="50" height="50" relative="1" as="geometry">
            <mxPoint x="192" y="751" as="sourcePoint" />
            <mxPoint x="362" y="751" as="targetPoint" />
          </mxGeometry>
        </mxCell>
        <mxCell id="N51gQ7MtI0D1SiTp_SJz-46" value="" style="endArrow=none;dashed=1;html=1;strokeWidth=2;rounded=0;opacity=20;dashPattern=1 1;" edge="1" parent="1">
          <mxGeometry width="50" height="50" relative="1" as="geometry">
            <mxPoint x="507" y="584" as="sourcePoint" />
            <mxPoint x="677" y="584" as="targetPoint" />
          </mxGeometry>
        </mxCell>
      </root>
    </mxGraphModel>
  </diagram>
</mxfile>
